<?xml version="1.0"?><svg fill="#000000" xmlns="http://www.w3.org/2000/svg"  viewBox="0 0 50 50" width="50px" height="50px">    <path d="M 13 3.9980469 C 12.79 3.9980469 12.580391 4.0642188 12.400391 4.1992188 L 9 6.75 L 5.5996094 4.1992188 C 5.2996094 3.9692188 4.8907812 3.939375 4.5507812 4.109375 C 4.2107813 4.279375 4 4.62 4 5 L 4 43.089844 C 4 44.699844 5.2603125 46 6.8203125 46 L 35 46 C 35.27 46 35.520938 45.890938 35.710938 45.710938 L 45.710938 35.710938 C 45.890937 35.520938 46 35.27 46 35 L 46 5 C 46 4.62 45.789219 4.279375 45.449219 4.109375 C 45.109219 3.939375 44.700391 3.9692188 44.400391 4.1992188 L 41 6.75 L 37.599609 4.1992188 C 37.239609 3.9292187 36.760391 3.9292188 36.400391 4.1992188 L 33 6.75 L 29.599609 4.1992188 C 29.239609 3.9292187 28.760391 3.9292188 28.400391 4.1992188 L 25 6.75 L 21.599609 4.1992188 C 21.239609 3.9292187 20.760391 3.9292188 20.400391 4.1992188 L 17 6.75 L 13.599609 4.1992188 C 13.419609 4.0642188 13.21 3.9980469 13 3.9980469 z M 9 12 L 41 12 L 41 16 L 9 16 L 9 12 z M 9 21 L 22 21 L 22 33 L 9 33 L 9 21 z M 26 21 L 41 21 L 41 23 L 26 23 L 26 21 z M 13.199219 24 L 12 25.199219 L 12 28.699219 L 13.199219 29.800781 L 17.800781 29.800781 L 19 28.699219 L 19 27.5 L 19 26.300781 L 17.800781 26.300781 L 16.699219 26.300781 L 15.5 27.5 L 17.800781 27.5 L 17.800781 28.699219 L 14.300781 28.699219 L 13.199219 28.699219 L 13.199219 25.199219 L 13.199219 24 z M 13.199219 25.199219 L 14.300781 25.199219 L 14.300781 28.699219 L 15.5 27.5 L 15.5 25.199219 L 19 25.199219 L 17.800781 24 L 14.300781 24 L 13.199219 25.199219 z M 26 25 L 41 25 L 41 27 L 26 27 L 26 25 z M 26 29 L 41 29 L 41 31 L 26 31 L 26 29 z M 26 33 L 32 33 L 32 35 L 26 35 L 26 33 z M 35 35 L 43.589844 35 L 35 43.589844 L 35 35 z M 9 37 L 22 37 L 22 39 L 9 39 L 9 37 z M 26 37 L 32 37 L 32 39 L 26 39 L 26 37 z"/></svg>